<?xml version="1.0" encoding="UTF-8" standalone="no"?>
<!-- Created with Inkscape (http://www.inkscape.org/) -->

<svg
   xmlns:dc="http://purl.org/dc/elements/1.1/"
   xmlns:cc="http://creativecommons.org/ns#"
   xmlns:rdf="http://www.w3.org/1999/02/22-rdf-syntax-ns#"
   xmlns:svg="http://www.w3.org/2000/svg"
   xmlns="http://www.w3.org/2000/svg"
   xmlns:sodipodi="http://sodipodi.sourceforge.net/DTD/sodipodi-0.dtd"
   xmlns:inkscape="http://www.inkscape.org/namespaces/inkscape"
   width="28.969364mm"
   height="28.914896mm"
   viewBox="0 0 102.64735 102.45436"
   id="svg2"
   version="1.1"
   inkscape:version="0.91 r13725"
   sodipodi:docname="sigma4c-icon.svg"
   inkscape:export-filename="E:\Users\jorge\sigma4c-icon_128x128.png"
   inkscape:export-xdpi="112.23"
   inkscape:export-ydpi="112.23">
  <defs
     id="defs4" />
  <sodipodi:namedview
     id="base"
     pagecolor="#ffffff"
     bordercolor="#666666"
     borderopacity="1.0"
     inkscape:pageopacity="0.0"
     inkscape:pageshadow="2"
     inkscape:zoom="3.959798"
     inkscape:cx="52.160771"
     inkscape:cy="35.921866"
     inkscape:document-units="px"
     inkscape:current-layer="layer1"
     showgrid="false"
     inkscape:window-width="1536"
     inkscape:window-height="801"
     inkscape:window-x="-8"
     inkscape:window-y="-8"
     inkscape:window-maximized="1"
     fit-margin-top="0"
     fit-margin-left="0"
     fit-margin-right="0"
     fit-margin-bottom="0" />
  <metadata
     id="metadata7">
    <rdf:RDF>
      <cc:Work
         rdf:about="">
        <dc:format>image/svg+xml</dc:format>
        <dc:type
           rdf:resource="http://purl.org/dc/dcmitype/StillImage" />
        <dc:title></dc:title>
      </cc:Work>
    </rdf:RDF>
  </metadata>
  <g
     inkscape:label="Capa 1"
     inkscape:groupmode="layer"
     id="layer1"
     transform="translate(-75.76216,-166.68822)">
    <g
       id="g3347"
       transform="translate(-47.477172,-78.791898)">
      <path
         style="fill:#d0d0d0"
         d="m 160.97699,346.43286 c -16.99057,-4.67083 -30.75314,-18.01542 -35.83514,-34.74682 -1.71868,-5.65838 -1.99734,-8.66884 -1.62373,-17.54152 0.5454,-12.95247 2.62419,-18.87272 10.10492,-28.7781 9.89488,-13.10203 23.76707,-19.8863 40.66263,-19.8863 10.64772,0 22.21507,3.11835 24.01028,6.47273 1.41713,2.64792 1.22263,13.28 -0.28053,15.33571 -1.18299,1.61782 -1.70932,1.51073 -7.66116,-1.55887 -5.9232,-3.05483 -7.09266,-3.296 -15.97975,-3.2953 -7.68309,6e-4 -10.50752,0.42539 -14.21124,2.13733 -17.8457,8.24868 -25.77172,29.79448 -17.31729,47.0747 5.13519,10.49596 14.24609,17.25678 26.26821,19.49252 12.04205,2.23946 26.64541,-4.03959 33.83561,-14.54839 5.48181,-8.0119 6.33587,-12.63271 6.33587,-34.27939 0,-12.72591 0.36681,-19.48619 1.08126,-19.92774 3.3519,-2.07159 11.99146,12.53677 14.51931,24.55022 4.3159,20.51107 -5.63334,42.82163 -24.03393,53.89459 -10.92086,6.57187 -27.75168,8.93751 -39.87532,5.60463 z m 7.11449,-25.8866 c -4.80947,-1.30642 -6.20704,-2.12918 -11.14739,-6.56261 -11.5514,-10.36612 -9.076,-30.44663 4.75226,-38.55053 11.85299,-6.94632 27.20051,-2.82273 34.27246,9.20836 2.37584,4.04188 2.81273,5.8881 2.79047,11.79216 -0.0293,7.76508 -1.6136,11.78354 -6.83556,17.33763 -6.15963,6.55138 -15.1972,9.12057 -23.83224,6.77499 z"
         id="path3361"
         inkscape:connector-curvature="0"
         sodipodi:nodetypes="sssssssssssssssssssssssss" />
      <path
         style="fill:#d0e59f"
         d="m 163.34451,346.37794 c -9.39113,-2.03635 -16.40795,-5.86569 -24.17617,-13.19383 -20.90642,-19.72206 -21.28058,-51.77922 -0.84414,-72.32343 10.24198,-10.29601 21.56758,-14.89342 36.74306,-14.91517 8.02579,-0.0115 18.71946,2.52046 21.96845,5.20152 1.57597,1.30049 1.71731,15.37976 0.16404,16.33974 -0.59728,0.36913 -3.18478,-0.46471 -5.75,-1.85298 -7.15724,-3.87343 -15.67611,-5.20736 -23.64872,-3.70304 -11.9654,2.25771 -23.10883,11.72749 -26.98377,22.93103 -2.2281,6.44207 -1.97847,17.80233 0.53905,24.53101 2.74,7.3233 10.41401,15.64937 17.73932,19.24661 5.01729,2.46385 6.81336,2.79415 15.19008,2.79349 11.39965,-9e-4 16.24982,-1.84663 24.06703,-9.15872 9.79597,-9.16298 11.93297,-16.77837 11.93297,-42.52419 0,-10.0898 0.38442,-16.81634 0.96104,-16.81634 2.93768,0 8.99171,9.82423 11.92742,19.35533 5.4714,17.76347 0.29747,37.44991 -13.2508,50.41842 -7.91797,7.57914 -13.47164,10.7541 -23.13379,13.22526 -9.01006,2.30439 -14.39936,2.40675 -23.44507,0.44529 z m -0.60691,-29.35861 c -14.51943,-8.32818 -16.18919,-27.45104 -3.3561,-38.43568 8.43223,-7.21768 21.37619,-7.21768 29.80843,0 9.74386,8.34038 11.52816,20.80713 4.51995,31.5805 -6.17743,9.49624 -20.74615,12.72077 -30.97228,6.85518 z"
         id="path3359"
         inkscape:connector-curvature="0"
         sodipodi:nodetypes="ssssscssssssssssssssssss" />
      <path
         style="fill:#afaeae"
         d="m 162.26735,344.89694 c -9.37352,-2.2267 -19.70777,-8.82959 -26.42049,-16.88093 -9.35704,-11.22298 -13.22086,-26.5919 -10.23203,-40.69938 5.25061,-24.78316 27.28887,-41.8766 51.67088,-40.07724 8.33692,0.61525 16.83915,3.11344 18.75,5.50926 1.42635,1.78836 1.70855,11.78356 0.35628,12.61931 -0.49155,0.30379 -3.50443,-0.64288 -6.6953,-2.10371 -16.09928,-7.37049 -35.65878,-1.92693 -45.64155,12.70239 -10.4502,15.31431 -8.04525,35.20268 5.78528,47.84301 7.15837,6.54234 14.4778,9.33848 24.44529,9.33848 14.56545,0 26.63315,-7.63379 33.22589,-21.01804 l 3.27411,-6.64694 0.34043,-19.77475 c 0.18723,-10.87612 0.72683,-19.77476 1.19911,-19.77476 3.47323,0 10.49635,16.26621 11.6057,26.87992 2.33699,22.35913 -14.12573,45.84271 -36.16064,51.58208 -6.26348,1.63142 -19.63883,1.89434 -25.50296,0.5013 z m 0.47025,-27.87761 c -14.51943,-8.32818 -16.18919,-27.45104 -3.3561,-38.43568 8.43223,-7.21768 21.37619,-7.21768 29.80843,0 9.74386,8.34038 11.52816,20.80713 4.51995,31.5805 -6.17743,9.49624 -20.74615,12.72077 -30.97228,6.85518 z"
         id="path3357"
         inkscape:connector-curvature="0"
         sodipodi:nodetypes="ssssssssssscssssssssss" />
      <path
         style="fill:#aed257"
         d="m 162.26735,344.89694 c -9.37352,-2.2267 -19.70777,-8.82959 -26.42049,-16.88093 -9.35704,-11.22298 -13.22086,-26.5919 -10.23203,-40.69938 5.25061,-24.78316 27.28887,-41.8766 51.67088,-40.07724 8.33692,0.61525 16.83915,3.11344 18.75,5.50926 1.42635,1.78836 1.70855,11.78356 0.35628,12.61931 -0.49155,0.30379 -3.50443,-0.64288 -6.6953,-2.10371 -16.09928,-7.37049 -35.65878,-1.92693 -45.64155,12.70239 -10.4502,15.31431 -8.04525,35.20268 5.78528,47.84301 7.15837,6.54234 14.4778,9.33848 24.44529,9.33848 14.56545,0 26.63315,-7.63379 33.22589,-21.01804 l 3.27411,-6.64694 0.34043,-19.77475 c 0.18723,-10.87612 0.72683,-19.77476 1.19911,-19.77476 3.47323,0 10.49635,16.26621 11.6057,26.87992 2.33699,22.35913 -14.12573,45.84271 -36.16064,51.58208 -6.26348,1.63142 -19.63883,1.89434 -25.50296,0.5013 z m 4.94305,-26.51227 c -4.8956,-1.50836 -10.96347,-6.69155 -13.43987,-11.4804 -4.43002,-8.56671 -2.61073,-18.93995 4.58348,-26.13417 9.73116,-9.73116 24.32999,-9.19872 33.24149,1.21235 6.31895,7.38228 7.40656,16.11423 3.08683,24.78281 -3.03415,6.08874 -7.42265,9.77004 -14.01046,11.75268 -5.68581,1.71118 -7.53441,1.69287 -13.46147,-0.13327 z"
         id="path3355"
         inkscape:connector-curvature="0"
         sodipodi:nodetypes="ssssssssssscssssssssssss" />
      <path
         style="fill:#949494"
         d="m 162.5232,343.44911 c -15.88802,-4.47093 -28.15712,-15.57493 -33.47841,-30.29924 -3.13256,-8.66796 -3.51929,-21.35475 -0.91255,-29.93688 4.1419,-13.63629 12.81628,-23.71703 25.77319,-29.95174 12.54455,-6.03628 25.15651,-6.60192 37.45775,-1.67994 3.89748,1.55947 3.92253,1.6046 3.92253,7.0679 0,4.84986 -0.20641,5.41173 -1.75,4.76353 -10.06976,-4.22858 -12.22177,-4.76017 -19.25,-4.75509 -33.58507,0.0243 -50.47951,39.60558 -27.42494,64.25278 2.84911,3.04593 7.3204,6.32331 11.29891,8.28193 6.03449,2.97077 7.37859,3.24042 16.10501,3.23096 8.22355,-0.009 10.30496,-0.37629 15.27366,-2.69588 7.53504,-3.51767 15.68656,-11.33518 19.31977,-18.52815 2.83881,-5.62023 2.92506,-6.24485 3.41992,-24.76565 0.31254,-11.69716 0.88914,-18.95039 1.50015,-18.87092 1.67891,0.21834 5.5,8.96042 7.67371,17.55627 1.82047,7.19896 1.93142,8.99839 0.92909,15.06772 -3.15759,19.11998 -14.9617,33.91535 -31.81728,39.88006 -7.62228,2.6973 -21.02043,3.35781 -28.04051,1.38234 z m 4.6872,-25.06444 c -4.8956,-1.50836 -10.96347,-6.69155 -13.43987,-11.4804 -4.43002,-8.56671 -2.61073,-18.93995 4.58348,-26.13417 9.73116,-9.73116 24.32999,-9.19872 33.24149,1.21235 6.31895,7.38228 7.40656,16.11423 3.08683,24.78281 -3.03415,6.08874 -7.42265,9.77004 -14.01046,11.75268 -5.68581,1.71118 -7.53441,1.69287 -13.46147,-0.13327 z"
         id="path3353"
         inkscape:connector-curvature="0"
         sodipodi:nodetypes="sssssssssscssscsssssssssss" />
      <path
         style="fill:#9fca38"
         d="m 162.5232,343.44911 c -15.88802,-4.47093 -28.15712,-15.57493 -33.47841,-30.29924 -3.13256,-8.66796 -3.51929,-21.35475 -0.91255,-29.93688 4.1419,-13.63629 12.81628,-23.71703 25.77319,-29.95174 12.54455,-6.03628 25.15651,-6.60192 37.45775,-1.67994 3.89748,1.55947 3.92253,1.6046 3.92253,7.0679 0,4.84986 -0.20641,5.41173 -1.75,4.76353 -10.06976,-4.22858 -12.22177,-4.76017 -19.25,-4.75509 -33.58507,0.0243 -50.47951,39.60558 -27.42494,64.25278 2.84911,3.04593 7.3204,6.32331 11.29891,8.28193 6.03449,2.97077 7.37859,3.24042 16.10501,3.23096 8.22355,-0.009 10.30496,-0.37629 15.27366,-2.69588 7.53504,-3.51767 15.68656,-11.33518 19.31977,-18.52815 2.83881,-5.62023 2.92506,-6.24485 3.41992,-24.76565 0.31254,-11.69716 0.88914,-18.95039 1.50015,-18.87092 1.67891,0.21834 5.5,8.96042 7.67371,17.55627 1.82047,7.19896 1.93142,8.99839 0.92909,15.06772 -3.15759,19.11998 -14.9617,33.91535 -31.81728,39.88006 -7.62228,2.6973 -21.02043,3.35781 -28.04051,1.38234 z m 7.26251,-25.42903 c -11.2747,-2.82564 -18.80079,-13.54897 -17.07693,-24.33155 3.40135,-21.27502 31.41029,-25.77746 40.97355,-6.58651 4.18467,8.39755 3.09687,17.06587 -2.98666,23.79961 -5.42072,6.00008 -13.88063,8.88012 -20.90996,7.11845 z"
         id="path3351"
         inkscape:connector-curvature="0"
         sodipodi:nodetypes="sssssssssscssscsssssssss" />
      <path
         style="fill:#666563"
         d="m 169.78571,318.02008 c -11.2747,-2.82564 -18.80079,-13.54897 -17.07693,-24.33155 3.40135,-21.27502 31.41029,-25.77746 40.97355,-6.58651 4.18467,8.39755 3.09687,17.06587 -2.98666,23.79961 -5.42072,6.00008 -13.88063,8.88012 -20.90996,7.11845 z"
         id="path3349"
         inkscape:connector-curvature="0"
         sodipodi:nodetypes="sssss" />
    </g>
  </g>
</svg>
